<?xml version="1.0" encoding="utf-8"?>
<!-- Generator: Adobe Illustrator 19.0.0, SVG Export Plug-In . SVG Version: 6.00 Build 0)  -->
<svg version="1.1" id="Layer_1" xmlns="http://www.w3.org/2000/svg" xmlns:xlink="http://www.w3.org/1999/xlink" x="0px" y="0px"
	 viewBox="228.8 282.8 153.9 233.3" style="enable-background:new 228.8 282.8 153.9 233.3;" xml:space="preserve">
<style type="text/css">
	.st0{fill:#ACBCCC;stroke:#231F20;stroke-width:1.5;stroke-linecap:round;stroke-linejoin:round;stroke-miterlimit:10;}
	.st1{fill:#F6F1EF;stroke:#231F20;stroke-width:1.5;stroke-linecap:round;stroke-linejoin:round;stroke-miterlimit:10;}
	.st2{fill:#526277;stroke:#231F20;stroke-width:1.5;stroke-linecap:round;stroke-linejoin:round;stroke-miterlimit:10;}
</style>
<g>
	<path class="st0" d="M234.9,512c-3.4,0-6.1-2.7-6.1-6.1v-217c0-3.4,2.7-6.1,6.1-6.1h141.8c3.4,0,6.1,2.7,6.1,6.1v217
		c0,3.4-2.7,6.1-6.1,6.1H234.9z"/>
	<path class="st1" d="M316.4,333.3c-3.4,0-6.1-2.7-6.1-6.1v-25.5c0-3.4,2.7-6.1,6.1-6.1h46.3c3.4,0,6.1,2.7,6.1,6.1v25.5
		c0,3.4-2.7,6.1-6.1,6.1H316.4z"/>
	<path class="st1" d="M248.9,333.3c-3.4,0-6.1-2.7-6.1-6.1v-25.5c0-3.4,2.7-6.1,6.1-6.1h46.3c3.4,0,6.1,2.7,6.1,6.1v25.5
		c0,3.4-2.7,6.1-6.1,6.1H248.9z"/>
	<path id="XMLID_2_" class="st1" d="M382.7,376.3V510c0,3.4-2.7,6.1-6.1,6.1H234.9c-3.4,0-6.1-2.7-6.1-6.1V354h130.7L382.7,376.3z"
		/>
	<rect x="228.8" y="437" class="st2" width="154" height="45.3"/>
	<path class="st2" d="M359.5,350c0,0,8,13.7,3.4,25.7l19.8-3.4L359.5,350z"/>
</g>
</svg>
