<?xml version="1.0" encoding="utf-8"?>
<!-- Generator: Adobe Illustrator 19.0.0, SVG Export Plug-In . SVG Version: 6.00 Build 0)  -->
<svg version="1.1" id="Layer_1" xmlns="http://www.w3.org/2000/svg" xmlns:xlink="http://www.w3.org/1999/xlink" x="0px" y="0px"
	 viewBox="228.7 278.8 86 176.9" style="enable-background:new 228.7 278.8 86 176.9;" xml:space="preserve">
<style type="text/css">
	.st0{fill:#ACBCCC;stroke:#231F20;stroke-width:1.5;stroke-linecap:round;stroke-linejoin:round;stroke-miterlimit:10;}
	.st1{fill:#F6F1EF;stroke:#231F20;stroke-width:1.5;stroke-linecap:round;stroke-linejoin:round;stroke-miterlimit:10;}
	.st2{fill:#526277;stroke:#231F20;stroke-width:1.5;stroke-linecap:round;stroke-linejoin:round;stroke-miterlimit:10;}
</style>
<g id="XMLID_3_">
	<path id="XMLID_9_" class="st0" d="M232.2,452.6c-1.9,0-3.4-2.1-3.4-4.6V283.4c0-2.5,1.5-4.6,3.4-4.6h79.2c1.9,0,3.4,2.1,3.4,4.6
		v164.5c0,2.5-1.5,4.6-3.4,4.6h-79.2V452.6z"/>
	<path id="XMLID_7_" class="st1" d="M248.9,329.3c-3.4,0-6.1-2.7-6.1-6.1v-25.5c0-3.4,2.7-6.1,6.1-6.1h46.3c3.4,0,6.1,2.7,6.1,6.1
		v25.5c0,3.4-2.7,6.1-6.1,6.1H248.9z"/>
	<path id="XMLID_2_" class="st1" d="M314.7,357.9v93.5c0,2.4-1.5,4.3-3.4,4.3h-79.2c-1.9,0-3.4-1.9-3.4-4.3V342.3h73L314.7,357.9z"
		/>
	<rect id="XMLID_5_" x="228.8" y="395.7" class="st2" width="86" height="34.3"/>
	<path id="XMLID_4_" class="st2" d="M301.8,339.5c0,0,4.5,9.6,1.9,18l11.1-2.4L301.8,339.5z"/>
</g>
</svg>
